<svg width="16" height="16" viewBox="0 0 16 16" fill="none" xmlns="http://www.w3.org/2000/svg">
<path d="M8.21674 3.33732V4.72831C8.21674 5.078 8.63637 5.24896 8.87727 5.00029L11.0454 2.83221C11.2008 2.67679 11.2008 2.43589 11.0454 2.28047L8.87727 0.112382C8.63637 -0.128517 8.21674 0.0424436 8.21674 0.392135V1.78313C4.78199 1.78313 2 4.56512 2 7.99987C2 8.80805 2.15542 9.58514 2.44294 10.2923C2.65276 10.8129 3.32106 10.9528 3.71737 10.5565C3.92719 10.3467 4.01267 10.0281 3.89611 9.74833C3.67075 9.21213 3.55418 8.61377 3.55418 7.99987C3.55418 5.42769 5.64456 3.33732 8.21674 3.33732ZM12.7161 5.44324C12.5063 5.65305 12.4208 5.97943 12.5374 6.25141C12.755 6.79538 12.8793 7.38597 12.8793 7.99987C12.8793 10.572 10.7889 12.6624 8.21674 12.6624V11.2714C8.21674 10.9217 7.79711 10.7508 7.55621 10.9994L5.38812 13.1675C5.2327 13.323 5.2327 13.5639 5.38812 13.7193L7.55621 15.8874C7.79711 16.1283 8.21674 15.9573 8.21674 15.6154V14.2166C11.6515 14.2166 14.4335 11.4346 14.4335 7.99987C14.4335 7.19169 14.2781 6.4146 13.9905 5.70745C13.7807 5.1868 13.1124 5.04692 12.7161 5.44324Z" fill="white"/>
</svg>
