<svg width="16" height="16" viewBox="0 0 16 16" fill="none" xmlns="http://www.w3.org/2000/svg">
<path d="M12.6316 8.42105C12.1684 8.42105 11.7895 8.8 11.7895 9.26316V13.6589C11.7895 14.1221 11.4105 14.5011 10.9474 14.5011H2.52632C2.06316 14.5011 1.68421 14.1221 1.68421 13.6589V5.05263C1.68421 4.58947 2.06316 4.21053 2.52632 4.21053H6.73684C7.2 4.21053 7.57895 3.83158 7.57895 3.36842C7.57895 2.90526 7.2 2.52632 6.73684 2.52632H1.68421C0.757895 2.52632 0 3.28421 0 4.21053V14.3158C0 15.2421 0.757895 16 1.68421 16H11.7895C12.7158 16 13.4737 15.2421 13.4737 14.3158V9.26316C13.4737 8.8 13.0947 8.42105 12.6316 8.42105Z" fill="white"/>
<path d="M15.1747 2.52632H13.4737V0.825263C13.4737 0.370526 13.1032 0 12.6484 0H12.6232C12.16 0 11.7895 0.370526 11.7895 0.825263V2.52632H10.0968C9.64211 2.52632 9.27158 2.89684 9.26316 3.35158C9.26316 3.36 9.26316 3.36842 9.26316 3.37684C9.26316 3.84 9.63368 4.21053 10.0968 4.21053H11.7895V5.90316C11.7895 6.35789 12.16 6.73684 12.6232 6.72842C12.6316 6.72842 12.64 6.72842 12.6484 6.72842C13.1032 6.72842 13.4737 6.35789 13.4737 5.90316V4.21053H15.1747C15.6295 4.21053 16 3.84 16 3.38526V3.35158C16 2.89684 15.6295 2.52632 15.1747 2.52632Z" fill="white"/>
<path d="M9.26316 5.89474H4.21053C3.74737 5.89474 3.36842 6.27368 3.36842 6.73684C3.36842 7.2 3.74737 7.57895 4.21053 7.57895H9.26316C9.72632 7.57895 10.1053 7.2 10.1053 6.73684C10.1053 6.27368 9.72632 5.89474 9.26316 5.89474Z" fill="white"/>
<path d="M9.26316 8.42105H4.21053C3.74737 8.42105 3.36842 8.8 3.36842 9.26316C3.36842 9.72632 3.74737 10.1053 4.21053 10.1053H9.26316C9.72632 10.1053 10.1053 9.72632 10.1053 9.26316C10.1053 8.8 9.72632 8.42105 9.26316 8.42105Z" fill="white"/>
<path d="M9.26316 10.9474H4.21053C3.74737 10.9474 3.36842 11.3263 3.36842 11.7895C3.36842 12.2526 3.74737 12.6316 4.21053 12.6316H9.26316C9.72632 12.6316 10.1053 12.2526 10.1053 11.7895C10.1053 11.3263 9.72632 10.9474 9.26316 10.9474Z" fill="white"/>
</svg>
